# 3ds Max Wavefront OBJ Exporter v0.97b - (c)2007 guruware
# File Created: 09.12.2020 17:47:49

mtllib flag.mtl

#
# object Box002
#

v  22.5000 0.0000 -2.5000
v  27.5000 0.0000 -2.5000
v  27.5000 0.0000 2.5000
v  22.5000 0.0000 2.5000
v  27.5000 35.0000 2.5000
v  27.5000 35.0000 -2.5000
v  22.5000 35.0000 -2.5000
v  22.5000 35.0000 2.5000
v  -25.0000 24.9313 -2.5000
v  25.0000 24.9313 -2.5000
v  25.0000 24.9313 2.5000
v  -25.0000 24.9313 2.5000
v  25.0000 34.9313 2.5000
v  25.0000 34.9313 -2.5000
v  -25.0000 34.9313 -2.5000
v  -25.0000 34.9313 2.5000
v  -27.5000 0.0000 -2.5000
v  -22.5000 0.0000 -2.5000
v  -22.5000 0.0000 2.5000
v  -27.5000 0.0000 2.5000
v  -22.5000 35.0000 2.5000
v  -22.5000 35.0000 -2.5000
v  -27.5000 35.0000 -2.5000
v  -27.5000 35.0000 2.5000
# 24 vertices

vn 0.0000 -1.0000 -0.0000
vn 0.0000 1.0000 -0.0000
vn 0.0000 0.0000 1.0000
vn 1.0000 0.0000 -0.0000
vn 0.0000 0.0000 -1.0000
vn -1.0000 0.0000 -0.0000
# 6 vertex normals

vt 1.0000 1.0000 0.0000
vt 0.0000 1.0000 0.0000
vt 0.0000 0.0000 0.0000
vt 1.0000 0.0000 0.0000
# 4 texture coords

o Box002
g Box002
usemtl wire_177088027
s 2
f 1/1/1 2/2/1 3/3/1 
f 3/3/1 4/4/1 1/1/1 
s 4
f 5/4/2 6/1/2 7/2/2 
f 7/2/2 8/3/2 5/4/2 
s 8
f 3/4/3 5/1/3 8/2/3 
f 8/2/3 4/3/3 3/4/3 
s 16
f 2/4/4 6/1/4 5/2/4 
f 5/2/4 3/3/4 2/4/4 
s 32
f 1/4/5 7/1/5 6/2/5 
f 6/2/5 2/3/5 1/4/5 
s 64
f 4/4/6 8/1/6 7/2/6 
f 7/2/6 1/3/6 4/4/6 
s 1
f 9/1/1 10/2/1 11/3/1 
f 11/3/1 12/4/1 9/1/1 
s 128
f 13/4/2 14/1/2 15/2/2 
f 15/2/2 16/3/2 13/4/2 
s 256
f 11/4/3 13/1/3 16/2/3 
f 16/2/3 12/3/3 11/4/3 
s 512
f 10/4/4 14/1/4 13/2/4 
f 13/2/4 11/3/4 10/4/4 
s 1024
f 9/4/5 15/1/5 14/2/5 
f 14/2/5 10/3/5 9/4/5 
s 2048
f 12/4/6 16/1/6 15/2/6 
f 15/2/6 9/3/6 12/4/6 
s 4096
f 17/1/1 18/2/1 19/3/1 
f 19/3/1 20/4/1 17/1/1 
s 8192
f 21/4/2 22/1/2 23/2/2 
f 23/2/2 24/3/2 21/4/2 
s 16384
f 19/4/3 21/1/3 24/2/3 
f 24/2/3 20/3/3 19/4/3 
s 32768
f 18/4/4 22/1/4 21/2/4 
f 21/2/4 19/3/4 18/4/4 
s 65536
f 17/4/5 23/1/5 22/2/5 
f 22/2/5 18/3/5 17/4/5 
s 131072
f 20/4/6 24/1/6 23/2/6 
f 23/2/6 17/3/6 20/4/6 
# 36 faces

