# 3ds Max Wavefront OBJ Exporter v0.97b - (c)2007 guruware
# File Created: 30.11.2020 12:01:19

mtllib pond.mtl

#
# object Cylinder001
#

v  3.3338 0.0000 -4.3262
v  23.5024 0.0000 -12.3803
v  23.6372 0.0000 -5.2476
v  19.3521 0.0000 -17.5661
v  13.2839 0.0000 -18.7471
v  6.8188 0.0000 -17.2233
v  0.4089 0.0000 -15.7769
v  -6.1412 0.0000 -14.8640
v  -12.1665 0.0000 -13.3911
v  -15.8386 0.0000 -9.7952
v  -16.8410 0.0000 -4.5557
v  -15.8363 0.0000 1.0561
v  -12.1640 0.0000 5.6036
v  -6.1448 0.0000 8.6339
v  0.3916 0.0000 10.2857
v  6.2496 0.0000 10.2857
v  12.2630 0.0000 8.6339
v  17.6250 0.0000 5.6036
v  21.4161 0.0000 1.0563
v  47.5355 0.0000 -23.8315
v  46.5757 0.0000 -6.5715
v  35.5277 0.0000 -34.6341
v  23.4918 0.0000 -37.9761
v  9.9870 0.0000 -31.4630
v  -2.4386 0.0000 -25.1816
v  -15.0333 0.0000 -27.0634
v  -27.9688 0.0000 -25.2973
v  -36.3797 0.0000 -15.9812
v  -38.3844 0.0000 -4.6118
v  -36.3797 0.0000 6.7575
v  -27.9848 0.0000 16.2384
v  -15.1204 0.0000 21.8270
v  -2.4386 0.0000 24.6169
v  9.1061 0.0000 24.6169
v  20.9258 0.0000 21.8270
v  32.1882 0.0000 16.2385
v  40.9947 0.0000 6.7549
v  47.5355 2.2254 -23.8315
v  46.5757 2.2254 -6.5715
v  35.5277 2.2254 -34.6341
v  23.4918 2.2254 -37.9761
v  9.9870 2.2254 -31.4630
v  -2.4386 2.2254 -25.1816
v  -15.0333 2.2254 -27.0634
v  -27.9688 2.2254 -25.2973
v  -36.3797 2.2254 -15.9812
v  -38.3844 2.2254 -4.6118
v  -36.3797 2.2254 6.7575
v  -27.9848 2.2254 16.2384
v  -15.1204 2.2254 21.8270
v  -2.4386 2.2254 24.6169
v  9.1061 2.2254 24.6169
v  20.9258 2.2254 21.8270
v  32.1882 2.2254 16.2385
v  40.9947 2.2254 6.7549
v  23.5024 2.2254 -12.3803
v  23.6372 2.2254 -5.2476
v  19.3521 2.2254 -17.5661
v  13.2839 2.2254 -18.7471
v  6.8188 2.2254 -17.2233
v  0.4089 2.2254 -15.7769
v  -6.1412 2.2254 -14.8640
v  -12.1665 2.2254 -13.3911
v  -15.8386 2.2254 -9.7952
v  -16.8410 2.2254 -4.5557
v  -15.8363 2.2254 1.0561
v  -12.1640 2.2254 5.6036
v  -6.1448 2.2254 8.6339
v  0.3916 2.2254 10.2857
v  6.2496 2.2254 10.2857
v  12.2630 2.2254 8.6339
v  17.6250 2.2254 5.6036
v  21.4161 2.2254 1.0563
v  3.3338 2.2254 -4.3262
# 74 vertices

vn 0.0000 -1.0000 -0.0000
vn 0.9746 0.0000 0.2242
vn 0.9244 0.0000 -0.3814
vn 0.4809 0.0000 -0.8768
vn -0.0891 0.0000 -0.9960
vn -0.4428 0.0000 -0.8966
vn -0.1592 0.0000 -0.9872
vn 0.0063 0.0000 -1.0000
vn -0.4671 0.0000 -0.8842
vn -0.8985 0.0000 -0.4390
vn -1.0000 0.0000 -0.0000
vn -0.9006 0.0000 0.4346
vn -0.5875 0.0000 0.8092
vn -0.3081 0.0000 0.9514
vn -0.1081 0.0000 0.9941
vn 0.1156 0.0000 0.9933
vn 0.3393 0.0000 0.9407
vn 0.5984 0.0000 0.8012
vn 0.8406 0.0000 0.5417
vn 0.0000 1.0000 -0.0000
# 20 vertex normals

vt 0.5000 0.0000 0.0000
vt 0.8056 0.0000 0.5000
vt 0.7500 0.0000 0.5000
vt 0.8611 0.0000 0.5000
vt 0.9167 0.0000 0.5000
vt 0.9722 0.0000 0.5000
vt 0.0278 0.0000 0.5000
vt -0.0278 0.0000 0.5000
vt 0.0833 0.0000 0.5000
vt 0.1389 0.0000 0.5000
vt 0.1944 0.0000 0.5000
vt 0.2500 0.0000 0.5000
vt 0.3056 0.0000 0.5000
vt 0.3611 0.0000 0.5000
vt 0.4167 0.0000 0.5000
vt 0.4722 0.0000 0.5000
vt 0.5278 0.0000 0.5000
vt 0.5833 0.0000 0.5000
vt 0.6389 0.0000 0.5000
vt 0.6944 0.0000 0.5000
vt 0.8056 0.0000 1.0000
vt 0.7500 0.0000 1.0000
vt 0.8611 0.0000 1.0000
vt 0.9167 0.0000 1.0000
vt 0.9722 0.0000 1.0000
vt 0.0278 0.0000 1.0000
vt -0.0278 0.0000 1.0000
vt 0.0833 0.0000 1.0000
vt 0.1389 0.0000 1.0000
vt 0.1944 0.0000 1.0000
vt 0.2500 0.0000 1.0000
vt 0.3056 0.0000 1.0000
vt 0.3611 0.0000 1.0000
vt 0.4167 0.0000 1.0000
vt 0.4722 0.0000 1.0000
vt 0.5278 0.0000 1.0000
vt 0.5833 0.0000 1.0000
vt 0.6389 0.0000 1.0000
vt 0.6944 0.0000 1.0000
vt 0.8056 1.0000 1.0000
vt 0.7500 1.0000 1.0000
vt 0.8611 1.0000 1.0000
vt 0.9167 1.0000 1.0000
vt 0.9722 1.0000 1.0000
vt 0.0278 1.0000 1.0000
vt -0.0278 1.0000 1.0000
vt 0.0833 1.0000 1.0000
vt 0.1389 1.0000 1.0000
vt 0.1944 1.0000 1.0000
vt 0.2500 1.0000 1.0000
vt 0.3056 1.0000 1.0000
vt 0.3611 1.0000 1.0000
vt 0.4167 1.0000 1.0000
vt 0.4722 1.0000 1.0000
vt 0.5278 1.0000 1.0000
vt 0.5833 1.0000 1.0000
vt 0.6389 1.0000 1.0000
vt 0.6944 1.0000 1.0000
vt 0.8056 1.0000 0.5000
vt 0.7500 1.0000 0.5000
vt 0.8611 1.0000 0.5000
vt 0.9167 1.0000 0.5000
vt 0.9722 1.0000 0.5000
vt 0.0278 1.0000 0.5000
vt -0.0278 1.0000 0.5000
vt 0.0833 1.0000 0.5000
vt 0.1389 1.0000 0.5000
vt 0.1944 1.0000 0.5000
vt 0.2500 1.0000 0.5000
vt 0.3056 1.0000 0.5000
vt 0.3611 1.0000 0.5000
vt 0.4167 1.0000 0.5000
vt 0.4722 1.0000 0.5000
vt 0.5278 1.0000 0.5000
vt 0.5833 1.0000 0.5000
vt 0.6389 1.0000 0.5000
vt 0.6944 1.0000 0.5000
vt 0.5000 1.0000 0.0000
# 78 texture coords

o Cylinder001
g Cylinder001
usemtl wire_087225087
s 1
f 1/1/1 2/2/1 3/3/1 
f 1/1/1 4/4/1 2/2/1 
f 1/1/1 5/5/1 4/4/1 
f 1/1/1 6/6/1 5/5/1 
f 1/1/1 7/7/1 6/8/1 
f 1/1/1 8/9/1 7/7/1 
f 1/1/1 9/10/1 8/9/1 
f 1/1/1 10/11/1 9/10/1 
f 1/1/1 11/12/1 10/11/1 
f 1/1/1 12/13/1 11/12/1 
f 1/1/1 13/14/1 12/13/1 
f 1/1/1 14/15/1 13/14/1 
f 1/1/1 15/16/1 14/15/1 
f 1/1/1 16/17/1 15/16/1 
f 1/1/1 17/18/1 16/17/1 
f 1/1/1 18/19/1 17/18/1 
f 1/1/1 19/20/1 18/19/1 
f 1/1/1 3/3/1 19/20/1 
f 3/3/1 2/2/1 20/21/1 
f 20/21/1 21/22/1 3/3/1 
f 2/2/1 4/4/1 22/23/1 
f 22/23/1 20/21/1 2/2/1 
f 4/4/1 5/5/1 23/24/1 
f 23/24/1 22/23/1 4/4/1 
f 5/5/1 6/6/1 24/25/1 
f 24/25/1 23/24/1 5/5/1 
f 6/8/1 7/7/1 25/26/1 
f 25/26/1 24/27/1 6/8/1 
f 7/7/1 8/9/1 26/28/1 
f 26/28/1 25/26/1 7/7/1 
f 8/9/1 9/10/1 27/29/1 
f 27/29/1 26/28/1 8/9/1 
f 9/10/1 10/11/1 28/30/1 
f 28/30/1 27/29/1 9/10/1 
f 10/11/1 11/12/1 29/31/1 
f 29/31/1 28/30/1 10/11/1 
f 11/12/1 12/13/1 30/32/1 
f 30/32/1 29/31/1 11/12/1 
f 12/13/1 13/14/1 31/33/1 
f 31/33/1 30/32/1 12/13/1 
f 13/14/1 14/15/1 32/34/1 
f 32/34/1 31/33/1 13/14/1 
f 14/15/1 15/16/1 33/35/1 
f 33/35/1 32/34/1 14/15/1 
f 15/16/1 16/17/1 34/36/1 
f 34/36/1 33/35/1 15/16/1 
f 16/17/1 17/18/1 35/37/1 
f 35/37/1 34/36/1 16/17/1 
f 17/18/1 18/19/1 36/38/1 
f 36/38/1 35/37/1 17/18/1 
f 18/19/1 19/20/1 37/39/1 
f 37/39/1 36/38/1 18/19/1 
f 19/20/1 3/3/1 21/22/1 
f 21/22/1 37/39/1 19/20/1 
s 8
f 21/22/2 20/21/3 38/40/3 
f 38/40/3 39/41/2 21/22/2 
f 20/21/3 22/23/4 40/42/4 
f 40/42/4 38/40/3 20/21/3 
f 22/23/4 23/24/5 41/43/5 
f 41/43/5 40/42/4 22/23/4 
f 23/24/5 24/25/6 42/44/6 
f 42/44/6 41/43/5 23/24/5 
f 24/27/6 25/26/7 43/45/7 
f 43/45/7 42/46/6 24/27/6 
f 25/26/7 26/28/8 44/47/8 
f 44/47/8 43/45/7 25/26/7 
f 26/28/8 27/29/9 45/48/9 
f 45/48/9 44/47/8 26/28/8 
f 27/29/9 28/30/10 46/49/10 
f 46/49/10 45/48/9 27/29/9 
f 28/30/10 29/31/11 47/50/11 
f 47/50/11 46/49/10 28/30/10 
f 29/31/11 30/32/12 48/51/12 
f 48/51/12 47/50/11 29/31/11 
f 30/32/12 31/33/13 49/52/13 
f 49/52/13 48/51/12 30/32/12 
f 31/33/13 32/34/14 50/53/14 
f 50/53/14 49/52/13 31/33/13 
f 32/34/14 33/35/15 51/54/15 
f 51/54/15 50/53/14 32/34/14 
f 33/35/15 34/36/16 52/55/16 
f 52/55/16 51/54/15 33/35/15 
f 34/36/16 35/37/17 53/56/17 
f 53/56/17 52/55/16 34/36/16 
f 35/37/17 36/38/18 54/57/18 
f 54/57/18 53/56/17 35/37/17 
f 36/38/18 37/39/19 55/58/19 
f 55/58/19 54/57/18 36/38/18 
f 37/39/19 21/22/2 39/41/2 
f 39/41/2 55/58/19 37/39/19 
s 1
f 39/41/20 38/40/20 56/59/20 
f 56/59/20 57/60/20 39/41/20 
f 38/40/20 40/42/20 58/61/20 
f 58/61/20 56/59/20 38/40/20 
f 40/42/20 41/43/20 59/62/20 
f 59/62/20 58/61/20 40/42/20 
f 41/43/20 42/44/20 60/63/20 
f 60/63/20 59/62/20 41/43/20 
f 42/46/20 43/45/20 61/64/20 
f 61/64/20 60/65/20 42/46/20 
f 43/45/20 44/47/20 62/66/20 
f 62/66/20 61/64/20 43/45/20 
f 44/47/20 45/48/20 63/67/20 
f 63/67/20 62/66/20 44/47/20 
f 45/48/20 46/49/20 64/68/20 
f 64/68/20 63/67/20 45/48/20 
f 46/49/20 47/50/20 65/69/20 
f 65/69/20 64/68/20 46/49/20 
f 47/50/20 48/51/20 66/70/20 
f 66/70/20 65/69/20 47/50/20 
f 48/51/20 49/52/20 67/71/20 
f 67/71/20 66/70/20 48/51/20 
f 49/52/20 50/53/20 68/72/20 
f 68/72/20 67/71/20 49/52/20 
f 50/53/20 51/54/20 69/73/20 
f 69/73/20 68/72/20 50/53/20 
f 51/54/20 52/55/20 70/74/20 
f 70/74/20 69/73/20 51/54/20 
f 52/55/20 53/56/20 71/75/20 
f 71/75/20 70/74/20 52/55/20 
f 53/56/20 54/57/20 72/76/20 
f 72/76/20 71/75/20 53/56/20 
f 54/57/20 55/58/20 73/77/20 
f 73/77/20 72/76/20 54/57/20 
f 55/58/20 39/41/20 57/60/20 
f 57/60/20 73/77/20 55/58/20 
f 74/78/20 57/60/20 56/59/20 
f 74/78/20 56/59/20 58/61/20 
f 74/78/20 58/61/20 59/62/20 
f 74/78/20 59/62/20 60/63/20 
f 74/78/20 60/65/20 61/64/20 
f 74/78/20 61/64/20 62/66/20 
f 74/78/20 62/66/20 63/67/20 
f 74/78/20 63/67/20 64/68/20 
f 74/78/20 64/68/20 65/69/20 
f 74/78/20 65/69/20 66/70/20 
f 74/78/20 66/70/20 67/71/20 
f 74/78/20 67/71/20 68/72/20 
f 74/78/20 68/72/20 69/73/20 
f 74/78/20 69/73/20 70/74/20 
f 74/78/20 70/74/20 71/75/20 
f 74/78/20 71/75/20 72/76/20 
f 74/78/20 72/76/20 73/77/20 
f 74/78/20 73/77/20 57/60/20 
# 144 faces

